<mxfile host="app.diagrams.net" modified="2024-05-13T02:34:00.125Z" agent="Mozilla/5.0 (Windows NT 10.0; Win64; x64) AppleWebKit/537.36 (KHTML, like Gecko) Chrome/124.0.0.0 Safari/537.36" etag="aZHFzk-nsaxfVLQjV2d7" version="24.4.0" type="github">
  <diagram id="RRQUYPQVB-kboXjHAfKR" name="EXERCISE-15">
    <mxGraphModel dx="1120" dy="434" grid="1" gridSize="10" guides="1" tooltips="1" connect="1" arrows="1" fold="1" page="1" pageScale="1" pageWidth="827" pageHeight="1169" math="0" shadow="0">
      <root>
        <mxCell id="0" />
        <mxCell id="1" parent="0" />
        <mxCell id="yQ4fiTlLkfCQGKSPunkg-3" value="" style="edgeStyle=orthogonalEdgeStyle;rounded=0;orthogonalLoop=1;jettySize=auto;html=1;" parent="1" source="yQ4fiTlLkfCQGKSPunkg-1" target="yQ4fiTlLkfCQGKSPunkg-2" edge="1">
          <mxGeometry relative="1" as="geometry" />
        </mxCell>
        <mxCell id="yQ4fiTlLkfCQGKSPunkg-1" value="INICIO" style="rounded=1;whiteSpace=wrap;html=1;" parent="1" vertex="1">
          <mxGeometry x="364" y="40" width="100" height="40" as="geometry" />
        </mxCell>
        <mxCell id="yQ4fiTlLkfCQGKSPunkg-5" value="" style="edgeStyle=orthogonalEdgeStyle;rounded=0;orthogonalLoop=1;jettySize=auto;html=1;" parent="1" source="yQ4fiTlLkfCQGKSPunkg-2" target="yQ4fiTlLkfCQGKSPunkg-4" edge="1">
          <mxGeometry relative="1" as="geometry" />
        </mxCell>
        <mxCell id="yQ4fiTlLkfCQGKSPunkg-2" value="a" style="shape=parallelogram;perimeter=parallelogramPerimeter;whiteSpace=wrap;html=1;fixedSize=1;" parent="1" vertex="1">
          <mxGeometry x="364" y="110" width="100" height="30" as="geometry" />
        </mxCell>
        <mxCell id="yQ4fiTlLkfCQGKSPunkg-7" value="" style="edgeStyle=orthogonalEdgeStyle;rounded=0;orthogonalLoop=1;jettySize=auto;html=1;" parent="1" source="yQ4fiTlLkfCQGKSPunkg-4" target="yQ4fiTlLkfCQGKSPunkg-6" edge="1">
          <mxGeometry relative="1" as="geometry" />
        </mxCell>
        <mxCell id="yQ4fiTlLkfCQGKSPunkg-4" value="b" style="shape=parallelogram;perimeter=parallelogramPerimeter;whiteSpace=wrap;html=1;fixedSize=1;" parent="1" vertex="1">
          <mxGeometry x="364" y="170" width="100" height="30" as="geometry" />
        </mxCell>
        <mxCell id="yQ4fiTlLkfCQGKSPunkg-9" value="" style="edgeStyle=orthogonalEdgeStyle;rounded=0;orthogonalLoop=1;jettySize=auto;html=1;" parent="1" source="yQ4fiTlLkfCQGKSPunkg-6" target="yQ4fiTlLkfCQGKSPunkg-8" edge="1">
          <mxGeometry relative="1" as="geometry" />
        </mxCell>
        <mxCell id="yQ4fiTlLkfCQGKSPunkg-6" value="c" style="shape=parallelogram;perimeter=parallelogramPerimeter;whiteSpace=wrap;html=1;fixedSize=1;" parent="1" vertex="1">
          <mxGeometry x="364" y="230" width="100" height="30" as="geometry" />
        </mxCell>
        <mxCell id="yQ4fiTlLkfCQGKSPunkg-11" value="" style="edgeStyle=orthogonalEdgeStyle;rounded=0;orthogonalLoop=1;jettySize=auto;html=1;" parent="1" source="yQ4fiTlLkfCQGKSPunkg-8" target="yQ4fiTlLkfCQGKSPunkg-10" edge="1">
          <mxGeometry relative="1" as="geometry" />
        </mxCell>
        <mxCell id="yQ4fiTlLkfCQGKSPunkg-8" value="&lt;div&gt;Los valores son: a =&amp;nbsp; a ,&amp;nbsp; b =&amp;nbsp; b , y&amp;nbsp; c = c&amp;nbsp;&lt;/div&gt;" style="shape=parallelogram;perimeter=parallelogramPerimeter;whiteSpace=wrap;html=1;fixedSize=1;" parent="1" vertex="1">
          <mxGeometry x="273" y="300" width="281" height="40" as="geometry" />
        </mxCell>
        <mxCell id="yQ4fiTlLkfCQGKSPunkg-13" value="" style="edgeStyle=orthogonalEdgeStyle;rounded=0;orthogonalLoop=1;jettySize=auto;html=1;" parent="1" source="yQ4fiTlLkfCQGKSPunkg-10" target="yQ4fiTlLkfCQGKSPunkg-12" edge="1">
          <mxGeometry relative="1" as="geometry" />
        </mxCell>
        <mxCell id="yQ4fiTlLkfCQGKSPunkg-10" value="&lt;div&gt;a=c&lt;/div&gt;&lt;div&gt;c=b&lt;/div&gt;&lt;div&gt;b=a&lt;/div&gt;" style="whiteSpace=wrap;html=1;" parent="1" vertex="1">
          <mxGeometry x="361" y="380" width="106" height="50" as="geometry" />
        </mxCell>
        <mxCell id="yQ4fiTlLkfCQGKSPunkg-15" value="" style="edgeStyle=orthogonalEdgeStyle;rounded=0;orthogonalLoop=1;jettySize=auto;html=1;" parent="1" source="yQ4fiTlLkfCQGKSPunkg-12" target="yQ4fiTlLkfCQGKSPunkg-14" edge="1">
          <mxGeometry relative="1" as="geometry" />
        </mxCell>
        <mxCell id="yQ4fiTlLkfCQGKSPunkg-12" value="&lt;div&gt;Permutamos: a =&amp;gt; b, b =&amp;gt; c, c =&amp;gt; a&lt;br&gt;&lt;/div&gt;&lt;div&gt;Los valores despues de la permutacion son: a =&amp;nbsp; c, b = a, c = b&amp;nbsp;&lt;br&gt;&lt;/div&gt;" style="shape=parallelogram;perimeter=parallelogramPerimeter;whiteSpace=wrap;html=1;fixedSize=1;" parent="1" vertex="1">
          <mxGeometry x="161.5" y="470" width="505" height="60" as="geometry" />
        </mxCell>
        <mxCell id="yQ4fiTlLkfCQGKSPunkg-14" value="FIN" style="rounded=1;whiteSpace=wrap;html=1;" parent="1" vertex="1">
          <mxGeometry x="371" y="585" width="86" height="40" as="geometry" />
        </mxCell>
      </root>
    </mxGraphModel>
  </diagram>
</mxfile>
